<?xml version="1.0" encoding="UTF-8" standalone="no"?>
<svg
   xmlns:dc="http://purl.org/dc/elements/1.1/"
   xmlns:cc="http://creativecommons.org/ns#"
   xmlns:rdf="http://www.w3.org/1999/02/22-rdf-syntax-ns#"
   xmlns:svg="http://www.w3.org/2000/svg"
   xmlns="http://www.w3.org/2000/svg"
   xmlns:sodipodi="http://sodipodi.sourceforge.net/DTD/sodipodi-0.dtd"
   xmlns:inkscape="http://www.inkscape.org/namespaces/inkscape"
   version="1.2"
   x="0px"
   y="0px"
   width="220"
   height="220"
   viewBox="0 0 220 220"
   overflow="inherit"
   xml:space="preserve"
   id="svg2"
   inkscape:version="0.48.4 r9939"
   sodipodi:docname="stylus.svg"
   style="overflow:inherit"
   inkscape:export-filename="C:\Users\jbasurto\Desktop\bitmap92x92png.png"
   inkscape:export-xdpi="37.639999"
   inkscape:export-ydpi="37.639999"><metadata
   id="metadata24"><rdf:RDF><cc:Work
       rdf:about=""><dc:format>image/svg+xml</dc:format><dc:type
         rdf:resource="http://purl.org/dc/dcmitype/StillImage" /><dc:title></dc:title></cc:Work></rdf:RDF></metadata><defs
   id="defs22" /><sodipodi:namedview
   pagecolor="#ffffff"
   bordercolor="#666666"
   borderopacity="1"
   objecttolerance="10"
   gridtolerance="10"
   guidetolerance="10"
   inkscape:pageopacity="0"
   inkscape:pageshadow="2"
   inkscape:window-width="640"
   inkscape:window-height="479"
   id="namedview20"
   showgrid="false"
   fit-margin-top="30"
   fit-margin-left="30"
   fit-margin-right="30"
   fit-margin-bottom="30"
   inkscape:zoom="1.0225221"
   inkscape:cx="91.345572"
   inkscape:cy="146.2046"
   inkscape:window-x="0"
   inkscape:window-y="0"
   inkscape:window-maximized="0"
   inkscape:current-layer="svg2" />


<g
   id="g8"
   transform="matrix(0.99768609,0,0,0.99768609,9.1624508,5.6189769)">
	<path
   d="m 175.841,3.437 c 1.639,0 2.976,0.411 4.017,1.23 1.036,0.819 1.746,1.913 2.13,3.279 0.382,1.366 0.435,2.924 0.164,4.672 -0.274,1.75 -0.901,3.498 -1.885,5.245 -0.22,0.219 -0.492,0.219 -0.82,0 -0.327,-0.219 -0.547,-0.491 -0.655,-0.819 0.218,-1.312 -0.245,-2.404 -1.394,-3.279 -1.147,-0.873 -2.925,-1.312 -5.327,-1.312 -4.482,0 -8.989,1.667 -13.523,5 -4.536,3.335 -8.935,7.735 -13.196,13.196 -4.262,5.466 -8.252,11.75 -11.966,18.852 -3.717,7.104 -6.941,14.426 -9.672,21.965 -2.732,7.54 -4.892,15.026 -6.475,22.457 -1.584,7.433 -2.375,14.207 -2.375,20.328 0,3.276 0.927,4.917 2.787,4.917 1.311,0 2.594,-0.547 3.851,-1.641 1.255,-1.091 2.706,-2.729 4.345,-4.917 0.327,-0.216 0.627,-0.189 0.9,0.083 0.272,0.275 0.354,0.629 0.247,1.064 -2.188,3.279 -4.754,6.011 -7.705,8.196 -2.95,2.188 -5.63,3.279 -8.032,3.279 -2.077,0 -3.524,-0.601 -4.343,-1.804 -0.819,-1.201 -1.23,-2.729 -1.23,-4.589 0,-5.136 1.091,-11.558 3.279,-19.26 2.185,-7.705 5.106,-15.845 8.77,-24.425 3.661,-8.578 7.895,-17.129 12.704,-25.653 4.808,-8.524 9.808,-16.2 15,-23.03 5.189,-6.83 10.409,-12.377 15.654,-16.64 5.242,-4.263 10.159,-6.394 14.75,-6.394 z"
   id="path10"
   inkscape:connector-curvature="0"
   style="fill:#b3d107" />
</g>
<g
   id="g12"
   transform="matrix(0.99768609,0,0,0.99768609,9.1624508,5.6189769)">
	<path
   d="m 30.299,204.864 c -1.64,0 -2.977,-0.41 -4.017,-1.229 -1.037,-0.819 -1.747,-1.913 -2.131,-3.279 -0.381,-1.368 -0.435,-2.924 -0.164,-4.672 0.275,-1.75 0.902,-3.497 1.885,-5.245 0.22,-0.221 0.492,-0.221 0.82,0 0.327,0.217 0.547,0.491 0.655,0.819 -0.217,1.312 0.246,2.404 1.394,3.279 1.147,0.872 2.924,1.31 5.327,1.31 4.482,0 8.99,-1.667 13.524,-5 4.535,-3.332 8.934,-7.731 13.196,-13.193 4.262,-5.466 8.252,-11.749 11.966,-18.852 3.716,-7.104 6.941,-14.426 9.671,-21.966 2.732,-7.54 4.892,-15.026 6.476,-22.457 1.584,-7.433 2.375,-14.207 2.375,-20.327 0,-3.279 -0.927,-4.917 -2.787,-4.917 -1.312,0 -2.595,0.544 -3.851,1.638 -1.255,1.091 -2.706,2.732 -4.345,4.919 -0.327,0.216 -0.627,0.189 -0.9,-0.083 -0.272,-0.275 -0.354,-0.63 -0.247,-1.067 2.188,-3.276 4.754,-6.011 7.705,-8.196 2.95,-2.185 5.629,-3.276 8.032,-3.276 2.077,0 3.524,0.598 4.343,1.801 0.819,1.203 1.23,2.732 1.23,4.592 0,5.136 -1.091,11.555 -3.279,19.26 -2.185,7.705 -5.106,15.845 -8.77,24.425 -3.661,8.578 -7.895,17.129 -12.704,25.653 -4.808,8.524 -9.808,16.2 -14.999,23.03 -5.189,6.83 -10.409,12.377 -15.655,16.638 -5.243,4.263 -10.16,6.395 -14.75,6.395 z"
   id="path14"
   inkscape:connector-curvature="0"
   style="fill:#b3d107" />
</g>


</svg>