<?xml version="1.0" encoding="utf-8"?>
<svg version="1.2" baseProfile="tiny" xmlns="http://www.w3.org/2000/svg" xmlns:xlink="http://www.w3.org/1999/xlink"
	 x="0px" y="0px" width="220.596px" height="209.102px" viewBox="0 0 220.596 209.102" overflow="inherit" xml:space="preserve">
<path fill="#606060" d="M31.638,84.631c2.402,0,4.345,0.328,5.82,0.985c1.476,0.656,2.213,1.475,2.213,2.459
	c0,1.204-0.303,2.569-0.902,4.098c-0.603,1.531-1.177,2.786-1.722,3.77c-0.22,0.219-0.491,0.246-0.819,0.083
	c-0.328-0.165-0.493-0.464-0.493-0.902c0.329-0.763,0.493-1.857,0.493-3.279c0-1.529-0.41-2.788-1.23-3.77
	c-0.819-0.984-1.941-1.475-3.36-1.475c-1.86,0-3.36,0.573-4.508,1.721c-1.147,1.147-1.721,2.761-1.721,4.834
	c0,1.75,0.463,3.417,1.393,5c0.927,1.588,1.968,3.172,3.115,4.755c1.147,1.584,2.213,3.279,3.196,5.082
	c0.984,1.804,1.476,3.853,1.476,6.147c0,3.933-1.585,6.993-4.753,9.178c-3.171,2.188-7.324,3.279-12.458,3.279
	c-3.716,0-6.639-0.6-8.77-1.803c-2.132-1.201-3.196-2.511-3.196-3.933c0-0.435,0.163-1.038,0.491-1.804
	c0.328-0.763,0.763-1.582,1.312-2.46c0.545-0.873,1.147-1.745,1.804-2.623c0.655-0.873,1.364-1.582,2.13-2.129
	c0.328-0.219,0.628-0.166,0.902,0.163c0.272,0.328,0.3,0.656,0.083,0.984c-0.656,0.654-1.147,1.339-1.476,2.049
	c-0.328,0.71-0.492,1.668-0.492,2.868c0,1.966,0.656,3.581,1.968,4.834c1.311,1.259,3.004,1.886,5.081,1.886
	c2.84,0,5.053-0.792,6.639-2.377c1.583-1.582,2.376-3.524,2.376-5.819c0-2.076-0.465-4.016-1.393-5.819
	c-0.93-1.804-1.941-3.551-3.032-5.246c-1.094-1.694-2.106-3.415-3.033-5.165c-0.93-1.745-1.393-3.604-1.393-5.574
	c0-2.838,1.201-5.216,3.606-7.128C23.386,85.592,26.938,84.631,31.638,84.631z"/>
<path fill="#606060" d="M76.387,85.453c0.546,0.219,0.765,0.521,0.657,0.902c-0.111,0.384-0.602,0.683-1.476,0.902
	c-1.64,0-3.524,0.056-5.655,0.163c-2.132,0.109-4.401,0.275-6.803,0.491c-2.188,5.357-3.99,10.573-5.41,15.656
	c-1.422,5.08-2.13,9.207-2.13,12.376c0,3.714,1.418,5.571,4.261,5.571c2.841,0,6.01-2.457,9.509-7.374
	c0.327-0.219,0.627-0.219,0.9,0c0.272,0.219,0.354,0.6,0.247,1.147c-1.86,3.06-4.209,5.712-7.049,7.951
	c-2.843,2.241-5.629,3.359-8.36,3.359c-2.843,0-4.946-0.68-6.311-2.049c-1.367-1.366-2.049-3.25-2.049-5.656
	c0-3.167,0.763-7.54,2.294-13.113c1.53-5.573,3.497-11.253,5.902-17.048c-2.843,0.328-5.465,0.769-7.868,1.312
	c-0.548-0.106-0.685-0.381-0.41-0.819c0.271-0.435,0.763-0.902,1.475-1.393c0.708-0.494,1.557-0.929,2.54-1.313
	c0.983-0.381,1.912-0.573,2.787-0.573c0.437,0,0.874,0,1.312,0c0.436,0,0.874-0.054,1.311-0.163
	c1.419-3.169,2.895-6.229,4.426-9.181c1.529-2.951,3.058-5.626,4.59-8.033c0.655-0.763,1.557-1.446,2.704-2.049
	c1.147-0.598,2.267-1.064,3.36-1.393c1.091-0.328,1.993-0.518,2.706-0.574c0.709-0.053,1.008,0.139,0.902,0.574
	c-1.86,2.844-3.688,6.011-5.492,9.508c-1.804,3.498-3.524,7.159-5.164,10.982c2.076-0.107,4.181-0.163,6.311-0.163
	C72.536,85.453,74.527,85.453,76.387,85.453z"/>
<g>
	<path fill="#B3D107" d="M175.841,3.437c1.639,0,2.976,0.411,4.017,1.23c1.036,0.819,1.746,1.913,2.13,3.279
		c0.382,1.366,0.435,2.924,0.164,4.672c-0.274,1.75-0.901,3.498-1.885,5.245c-0.22,0.219-0.492,0.219-0.82,0
		c-0.327-0.219-0.547-0.491-0.655-0.819c0.218-1.312-0.245-2.404-1.394-3.279c-1.147-0.873-2.925-1.312-5.327-1.312
		c-4.482,0-8.989,1.667-13.523,5c-4.536,3.335-8.935,7.735-13.196,13.196c-4.262,5.466-8.252,11.75-11.966,18.852
		c-3.717,7.104-6.941,14.426-9.672,21.965c-2.732,7.54-4.892,15.026-6.475,22.457c-1.584,7.433-2.375,14.207-2.375,20.328
		c0,3.276,0.927,4.917,2.787,4.917c1.311,0,2.594-0.547,3.851-1.641c1.255-1.091,2.706-2.729,4.345-4.917
		c0.327-0.216,0.627-0.189,0.9,0.083c0.272,0.275,0.354,0.629,0.247,1.064c-2.188,3.279-4.754,6.011-7.705,8.196
		c-2.95,2.188-5.63,3.279-8.032,3.279c-2.077,0-3.524-0.601-4.343-1.804c-0.819-1.201-1.23-2.729-1.23-4.589
		c0-5.136,1.091-11.558,3.279-19.26c2.185-7.705,5.106-15.845,8.77-24.425c3.661-8.578,7.895-17.129,12.704-25.653
		c4.808-8.524,9.808-16.2,15-23.03c5.189-6.83,10.409-12.377,15.654-16.64C166.333,5.568,171.25,3.437,175.841,3.437z"/>
</g>
<g>
	<path fill="#B3D107" d="M30.299,204.864c-1.64,0-2.977-0.41-4.017-1.229c-1.037-0.819-1.747-1.913-2.131-3.279
		c-0.381-1.368-0.435-2.924-0.164-4.672c0.275-1.75,0.902-3.497,1.885-5.245c0.22-0.221,0.492-0.221,0.82,0
		c0.327,0.217,0.547,0.491,0.655,0.819c-0.217,1.312,0.246,2.404,1.394,3.279c1.147,0.872,2.924,1.31,5.327,1.31
		c4.482,0,8.99-1.667,13.524-5c4.535-3.332,8.934-7.731,13.196-13.193c4.262-5.466,8.252-11.749,11.966-18.852
		c3.716-7.104,6.941-14.426,9.671-21.966c2.732-7.54,4.892-15.026,6.476-22.457c1.584-7.433,2.375-14.207,2.375-20.327
		c0-3.279-0.927-4.917-2.787-4.917c-1.312,0-2.595,0.544-3.851,1.638c-1.255,1.091-2.706,2.732-4.345,4.919
		c-0.327,0.216-0.627,0.189-0.9-0.083c-0.272-0.275-0.354-0.63-0.247-1.067c2.188-3.276,4.754-6.011,7.705-8.196
		c2.95-2.185,5.629-3.276,8.032-3.276c2.077,0,3.524,0.598,4.343,1.801c0.819,1.203,1.23,2.732,1.23,4.592
		c0,5.136-1.091,11.555-3.279,19.26c-2.185,7.705-5.106,15.845-8.77,24.425c-3.661,8.578-7.895,17.129-12.704,25.653
		c-4.808,8.524-9.808,16.2-14.999,23.03c-5.189,6.83-10.409,12.377-15.655,16.638C39.806,202.732,34.889,204.864,30.299,204.864z"/>
</g>
<path fill="#606060" d="M141.031,126.596c-4.59,0-6.885-2.513-6.885-7.54c0-1.748,0.189-3.77,0.573-6.064
	c0.382-2.297,0.985-4.671,1.804-7.131c0.819-2.46,1.774-4.944,2.868-7.46c1.091-2.51,2.402-4.917,3.934-7.211
	c-1.203,0.766-2.35,1.558-3.441,2.377c-1.094,0.819-2.077,1.667-2.951,2.54c-0.328,0.222-0.63,0.139-0.902-0.245
	c-0.273-0.382-0.301-0.737-0.082-1.065c1.857-1.969,4.508-3.988,7.951-6.067c3.441-2.073,6.746-3.714,9.917-4.917
	c0.546,0,0.955,0.139,1.229,0.411c0.272,0.275,0.301,0.63,0.083,1.064c-3.499,4.592-6.312,9.565-8.443,14.917
	c-2.13,5.357-3.196,10.549-3.196,15.573c0,3.172,0.985,4.754,2.951,4.754c1.419,0,3.168-0.956,5.245-2.868
	c2.076-1.913,4.263-4.426,6.559-7.542c2.294-3.114,4.614-6.638,6.966-10.571c2.349-3.935,4.508-7.924,6.475-11.969
	c0.327-0.653,1.284-1.31,2.868-1.966c1.584-0.657,3.196-0.985,4.836-0.985s2.131,0.44,1.476,1.313
	c-1.531,2.844-2.868,5.491-4.017,7.95c-1.147,2.458-2.105,4.891-2.868,7.294c-0.766,2.404-1.339,4.834-1.721,7.294
	c-0.385,2.46-0.574,5.163-0.574,8.113c0,3.5,0.928,5.245,2.787,5.245c1.857,0,3.934-1.638,6.229-4.917
	c0.328-0.216,0.656-0.216,0.983,0c0.328,0.222,0.436,0.55,0.328,0.984c-1.859,2.842-3.909,5-6.147,6.476
	c-2.241,1.475-4.29,2.211-6.146,2.211c-4.591,0-6.885-2.676-6.885-8.031c0-5.573,0.982-11.091,2.95-16.557
	c-4.154,7.54-8.524,13.524-13.113,17.95C148.08,124.385,144.199,126.596,141.031,126.596z"/>
<path fill="#606060" d="M208.728,84.631c2.402,0,4.345,0.328,5.82,0.985c1.476,0.656,2.213,1.475,2.213,2.459
	c0,1.204-0.303,2.569-0.901,4.098c-0.604,1.531-1.177,2.786-1.723,3.77c-0.22,0.219-0.491,0.246-0.819,0.083
	c-0.328-0.165-0.492-0.464-0.492-0.902c0.328-0.763,0.492-1.857,0.492-3.279c0-1.529-0.409-2.788-1.229-3.77
	c-0.819-0.984-1.941-1.475-3.36-1.475c-1.859,0-3.36,0.573-4.508,1.721s-1.721,2.761-1.721,4.834c0,1.75,0.463,3.417,1.393,5
	c0.927,1.588,1.968,3.172,3.115,4.755c1.147,1.584,2.213,3.279,3.196,5.082c0.984,1.804,1.476,3.853,1.476,6.147
	c0,3.933-1.585,6.993-4.754,9.178c-3.171,2.188-7.323,3.279-12.458,3.279c-3.717,0-6.639-0.6-8.77-1.803
	c-2.132-1.201-3.196-2.511-3.196-3.933c0-0.435,0.163-1.038,0.491-1.804c0.328-0.763,0.763-1.582,1.312-2.46
	c0.545-0.873,1.146-1.745,1.803-2.623c0.655-0.873,1.365-1.582,2.131-2.129c0.328-0.219,0.628-0.166,0.901,0.163
	c0.272,0.328,0.301,0.656,0.083,0.984c-0.656,0.654-1.147,1.339-1.476,2.049c-0.328,0.71-0.492,1.668-0.492,2.868
	c0,1.966,0.656,3.581,1.968,4.834c1.312,1.259,3.004,1.886,5.081,1.886c2.84,0,5.054-0.792,6.64-2.377
	c1.582-1.582,2.376-3.524,2.376-5.819c0-2.076-0.466-4.016-1.393-5.819c-0.93-1.804-1.941-3.551-3.032-5.246
	c-1.094-1.694-2.106-3.415-3.034-5.165c-0.93-1.745-1.393-3.604-1.393-5.574c0-2.838,1.201-5.216,3.606-7.128
	C200.476,85.592,204.027,84.631,208.728,84.631z"/>
</svg>
